Table users {
  id int [pk, increment]
  username varchar(255) [not null, unique]
  email varchar(255) [not null, unique]
  created_at timestamp [not null, default: `now()`]
}

Table categories {
  id int [pk, increment]
  name varchar(255) [not null, unique]
}

Table posts {
  id int [pk, increment]
  user_id int [not null]
  category_id int [not null]
  title varchar(255) [not null]
  body text
  created_at timestamp [not null, default: `now()`]
}

Table comments {
  id int [pk, increment]
  post_id int [not null]
  user_id int [not null]
  body text [not null]
  created_at timestamp [not null, default: `now()`]
}

Ref: posts.user_id > users.id
Ref: posts.category_id > categories.id
Ref: comments.post_id > posts.id
Ref: comments.user_id > users.id
